HIERARCHY
ROOT Hips
{
    OFFSET 0.000000 0.000000 0.000000
    CHANNELS 6 Xposition Yposition Zposition Zrotation Xrotation Yrotation
    JOINT Spine
    {
        OFFSET -0.000000 14.517291 0.000000
        CHANNELS 3 Zrotation Xrotation Yrotation
        JOINT Spine1
        {
            OFFSET -0.000000 37.558300 0.000000
            CHANNELS 3 Zrotation Xrotation Yrotation
            JOINT Neck
            {
                OFFSET -0.000000 37.404057 3.400369
                CHANNELS 3 Zrotation Xrotation Yrotation
                JOINT Head
                {
                    OFFSET -0.000000 24.785618 -3.540803
                    CHANNELS 3 Zrotation Xrotation Yrotation
                    End Site
                    {
                        OFFSET -0.000000 35.408028 0.000000
                    }
                }
            }
            JOINT LeftShoulder
            {
                OFFSET 6.992933 33.973492 -0.192664
                CHANNELS 3 Zrotation Xrotation Yrotation
                JOINT LeftArm
                {
                    OFFSET 21.527611 0.000000 0.000000
                    CHANNELS 3 Zrotation Xrotation Yrotation
                    JOINT LeftForeArm
                    {
                        OFFSET 56.353916 0.000000 0.000000
                        CHANNELS 3 Zrotation Xrotation Yrotation
                        JOINT LeftHand
                        {
                            OFFSET 47.774071 0.000000 0.000000
                            CHANNELS 3 Zrotation Xrotation Yrotation
                            End Site
                            {
                                OFFSET 26.556021 0.000000 0.000000
                            }
                        }
                    }
                }
            }
            JOINT RightShoulder
            {
                OFFSET -7.065357 33.973492 -0.192664
                CHANNELS 3 Zrotation Xrotation Yrotation
                JOINT RightArm
                {
                    OFFSET -21.527611 0.000000 0.000000
                    CHANNELS 3 Zrotation Xrotation Yrotation
                    JOINT RightForeArm
                    {
                        OFFSET -56.353916 0.000000 0.000000
                        CHANNELS 3 Zrotation Xrotation Yrotation
                        JOINT RightHand
                        {
                            OFFSET -47.774071 0.000000 0.000000
                            CHANNELS 3 Zrotation Xrotation Yrotation
                            End Site
                            {
                                OFFSET -26.556021 0.000000 0.000000
                            }
                        }
                    }
                }
            }
        }
    }
    JOINT LeftUpLeg
    {
        OFFSET 17.704014 0.000000 0.000000
        CHANNELS 3 Zrotation Xrotation Yrotation
        JOINT LeftLeg
        {
            OFFSET -0.000000 -81.181816 0.000000
            CHANNELS 3 Zrotation Xrotation Yrotation
            JOINT LeftFoot
            {
                OFFSET -0.000000 -62.821102 0.000000
                CHANNELS 3 Zrotation Xrotation Yrotation
                JOINT LeftToeBase
                {
                    OFFSET -0.000000 -11.507608 26.556021
                    CHANNELS 3 Zrotation Xrotation Yrotation
                    End Site
                    {
                        OFFSET -0.000000 0.000000 7.081605
                    }
                }
            }
        }
    }
    JOINT RightUpLeg
    {
        OFFSET -17.704014 0.000000 0.000000
        CHANNELS 3 Zrotation Xrotation Yrotation
        JOINT RightLeg
        {
            OFFSET -0.000000 -81.181816 0.000000
            CHANNELS 3 Zrotation Xrotation Yrotation
            JOINT RightFoot
            {
                OFFSET -0.000000 -62.821102 0.000000
                CHANNELS 3 Zrotation Xrotation Yrotation
                JOINT RightToeBase
                {
                    OFFSET -0.000000 -11.507608 26.556021
                    CHANNELS 3 Zrotation Xrotation Yrotation
                    End Site
                    {
                        OFFSET -0.000000 0.000000 7.081605
                    }
                }
            }
        }
    }
}
MOTION
Frames:    10
Frame Time:    0.008333
22.186438    154.108917    -97.056900    10.911894    2.379204    22.303017    12.586935    -0.232110    -0.441367    6.315136    2.082576    -0.258024    20.165096    -6.811542    0.513085    -10.301744    12.671679    -4.052951    8.732648    8.526849    -21.240314    -32.651859    25.012535    -53.903042    5.758643    -19.656906    -98.016220    11.306417    -14.156849    -8.954275    -3.948808    -2.815824    -3.054827    28.892286    -21.922663    65.554977    -14.749340    -13.016276    74.509918    -2.620160    -2.640561    35.086983    -8.954057    1.739084    2.811512    -11.163106    28.643999    -20.326067    12.690126    -22.896189    41.857399    0.000000    0.000000    0.000000    -35.760456    -26.546211    -9.858277    16.363615    37.187366    -12.175378    9.364276    0.722357    -12.757473    0.000000    0.000000    0.000000    
22.251831    154.082901    -97.086159    10.967434    2.466483    22.307201    12.607477    -0.250237    -0.476063    6.355233    2.073838    -0.270401    20.255569    -6.856656    0.513840    -10.372624    12.763498    -4.073455    8.772109    8.534631    -21.296471    -32.597507    25.089401    -53.904892    5.816224    -19.820711    -97.988670    11.281799    -14.259131    -8.922707    -3.917303    -2.830856    -3.058349    28.960428    -21.974150    65.543961    -14.693908    -12.891667    74.532707    -2.647531    -2.561189    35.129917    -9.051240    1.667339    2.863952    -11.169971    28.668137    -20.315638    12.679503    -22.884310    41.811893    0.000000    0.000000    0.000000    -35.885956    -26.622219    -9.837631    16.374918    37.235970    -12.200740    9.384418    0.680929    -12.770533    0.000000    0.000000    0.000000    
22.316071    154.056519    -97.112785    11.028922    2.554223    22.313686    12.610783    -0.239433    -0.519900    6.407420    2.006777    -0.281604    20.344015    -6.816832    0.507832    -10.451609    12.769002    -4.093557    8.784704    8.583695    -21.342911    -32.604633    25.085688    -53.868286    5.855886    -19.853724    -97.960999    11.179665    -14.247742    -8.962076    -3.828635    -2.770362    -3.053631    28.877380    -21.991514    65.540718    -14.721433    -12.911469    74.495094    -2.745739    -2.597318    35.075508    -9.149451    1.600676    2.933205    -11.175788    28.694235    -20.326559    12.668125    -22.873198    41.778538    0.000000    0.000000    0.000000    -36.017887    -26.701893    -9.825164    16.376831    37.301384    -12.213248    9.425262    0.642102    -12.791740    0.000000    0.000000    0.000000    
22.380611    154.030746    -97.141312    11.083298    2.639317    22.326105    12.619577    -0.240931    -0.555179    6.466846    1.963928    -0.292056    20.351372    -6.812160    0.479525    -10.438991    12.809484    -4.119565    8.767577    8.604493    -21.371582    -32.619282    25.070288    -53.838417    5.875990    -19.837927    -97.934235    11.073421    -14.208384    -9.012218    -3.822644    -2.773867    -3.066343    28.910131    -22.002565    65.521339    -14.679480    -12.833771    74.517029    -2.829362    -2.566893    34.873974    -9.238021    1.536121    2.990312    -11.192925    28.714857    -20.313021    12.654912    -22.868328    41.724255    0.000000    0.000000    0.000000    -36.147377    -26.768904    -9.744658    16.440536    37.327610    -12.299175    9.453377    0.598132    -12.839871    0.000000    0.000000    0.000000    
22.434361    154.006271    -97.164383    11.138866    2.726944    22.328196    12.614185    -0.266873    -0.586202    6.518164    1.966971    -0.304492    20.371832    -6.804083    0.464197    -10.440063    12.811022    -4.138313    8.779920    8.621836    -21.392269    -32.623837    25.056149    -53.824436    5.865548    -19.829151    -97.916389    11.059091    -14.219012    -9.085046    -3.803650    -2.743182    -3.074124    28.974478    -22.027956    65.480438    -14.134585    -13.184373    74.802223    -1.827101    -2.985690    35.208725    -9.311876    1.480430    3.092553    -11.217377    28.721394    -20.338211    12.638800    -22.863152    41.677647    0.000000    0.000000    0.000000    -36.276485    -26.855507    -9.729284    16.455385    37.398388    -12.267592    9.486219    0.550459    -12.900848    0.000000    0.000000    0.000000    
22.492842    153.986160    -97.189224    11.196366    2.811411    22.333128    12.616517    -0.302547    -0.606631    6.556710    1.982817    -0.314202    20.404165    -6.837718    0.463503    -10.466763    12.896484    -4.144879    8.792167    8.633723    -21.432472    -32.590214    25.085308    -53.834473    5.879170    -19.909534    -97.898766    11.084567    -14.290434    -9.084197    -3.769078    -2.738015    -3.099923    28.907286    -21.990353    65.449089    -14.141372    -13.278479    74.761414    -1.784020    -3.070755    35.179371    -9.396271    1.426083    3.214171    -11.210248    28.725826    -20.385202    12.599528    -22.845085    41.618156    0.000000    0.000000    0.000000    -36.406208    -26.943077    -9.713986    16.459175    37.479809    -12.230427    9.540928    0.520854    -12.961085    0.000000    0.000000    0.000000    
22.544922    153.968948    -97.212051    11.257526    2.889611    22.335432    12.621525    -0.326901    -0.629914    6.567247    1.990962    -0.323156    20.433802    -6.873335    0.444390    -10.477738    12.992773    -4.168899    8.811596    8.639850    -21.454615    -32.572681    25.128365    -53.836761    5.898451    -19.982605    -97.881691    11.090353    -14.345260    -9.069990    -3.715837    -2.720089    -3.098768    28.903709    -22.031132    65.422272    -14.139857    -13.229568    74.742752    -1.814279    -3.035518    35.201241    -9.475917    1.376447    3.361638    -11.188008    28.755764    -20.475733    12.559258    -22.843956    41.563789    0.000000    0.000000    0.000000    -36.529068    -27.027880    -9.713847    16.445526    37.563736    -12.177499    9.589184    0.500017    -13.020971    0.000000    0.000000    0.000000    
22.591028    153.954208    -97.232178    11.315331    2.962521    22.338022    12.620192    -0.347061    -0.653060    6.591486    2.001184    -0.332806    20.416655    -6.857382    0.423380    -10.448070    12.981339    -4.184362    8.821636    8.643499    -21.471176    -32.584290    25.142681    -53.829525    5.938302    -20.016083    -97.845383    10.997561    -14.330282    -9.050003    -3.690217    -2.703952    -3.121520    28.917389    -22.043571    65.416992    -14.107568    -13.211435    74.730560    -1.847034    -3.055195    35.212948    -9.547193    1.330088    3.501107    -11.175246    28.775946    -20.533657    12.504928    -22.834814    41.497379    0.000000    0.000000    0.000000    -36.642967    -27.097950    -9.535707    16.547062    37.584084    -12.312059    9.666768    0.466625    -13.077506    0.000000    0.000000    0.000000    
22.633871    153.940170    -97.249924    11.372844    3.031290    22.337658    12.612387    -0.361733    -0.666963    6.629683    2.007952    -0.339124    20.406891    -6.859953    0.400325    -10.451641    13.006847    -4.204394    8.814325    8.642786    -21.502138    -32.623726    25.140276    -53.789764    5.935785    -20.022734    -97.852928    10.941747    -14.333159    -9.032028    -3.697208    -2.701907    -3.147987    28.867952    -21.979372    65.371384    -14.192236    -13.293902    74.656975    -1.786349    -3.067557    35.123592    -9.617866    1.283493    3.633101    -11.159007    28.802971    -20.602961    12.468994    -22.818539    41.438606    0.000000    0.000000    0.000000    -36.749149    -27.174166    -9.460597    16.577185    37.644810    -12.317150    9.717600    0.439219    -13.153953    0.000000    0.000000    0.000000    
22.672178    153.927811    -97.267899    11.426785    3.094797    22.344357    12.619785    -0.375498    -0.690673    6.635935    2.008995    -0.347568    20.433050    -6.853847    0.394537    -10.495461    13.043009    -4.212840    8.816738    8.676076    -21.496912    -32.644619    25.107992    -53.795456    5.913595    -19.997301    -97.847336    10.937221    -14.329193    -9.001148    -3.674061    -2.700100    -3.152342    28.907906    -22.016899    65.351257    -14.079520    -13.216434    74.675003    -1.794040    -3.075026    35.130154    -9.685461    1.262603    3.749746    -11.056819    28.782272    -20.880165    12.378561    -22.834728    41.451591    0.000000    0.000000    0.000000    -36.846802    -27.246008    -9.403324    16.581360    37.715038    -12.337747    9.773541    0.428024    -13.176269    0.000000    0.000000    0.000000    
